
<svg version="1.1" xmlns="http://www.w3.org/2000/svg" width="350" height="121">
    <path d="M0 0 C6.7963323 5.56366419 10.76559362 12.47354798 11.65625 21.27734375 C11.85052279 30.05199819 9.76530197 37.61517799 4.21484375 44.5078125 C1.33612794 47.38652831 -1.96317232 49.3776273 -5.546875 51.26953125 C-2.72825729 53.59774683 -2.72825729 53.59774683 0.453125 53.01953125 C3.60727918 52.40967142 3.60727918 52.40967142 6.453125 50.26953125 C7.443125 50.26953125 8.433125 50.26953125 9.453125 50.26953125 C11.103125 53.56953125 12.753125 56.86953125 14.453125 60.26953125 C7.74600487 65.17718013 0.80483775 67.41950891 -7.546875 66.26953125 C-13.48340011 64.39371721 -16.96600056 61.2610532 -20.546875 56.26953125 C-20.876875 55.60953125 -21.206875 54.94953125 -21.546875 54.26953125 C-23.62938976 53.72538586 -23.62938976 53.72538586 -26.109375 53.39453125 C-35.92499503 51.53752205 -41.64334467 47.38518904 -47.546875 39.26953125 C-51.85925113 32.4908798 -51.29381754 23.98793745 -50.546875 16.26953125 C-48.51998943 8.57608386 -44.05672131 2.54056203 -37.171875 -1.48046875 C-24.98233676 -7.70533968 -11.52744637 -7.83229869 0 0 Z M-32.921875 15.45703125 C-35.07795702 19.66094013 -35.23160405 23.64549678 -34.546875 28.26953125 C-32.85876975 33.14627976 -30.11028974 36.77499651 -25.546875 39.26953125 C-20.98475693 40.69882872 -17.05025317 40.91127804 -12.734375 38.70703125 C-8.05084547 35.5231005 -5.93762717 31.88464021 -4.609375 26.39453125 C-4.20642081 20.98048009 -5.66405126 16.72085302 -8.95703125 12.43359375 C-12.2508559 9.11640864 -14.91914105 7.85643941 -19.609375 7.64453125 C-25.92859605 8.07604103 -29.15254032 10.39818734 -32.921875 15.45703125 Z " fill="#0089BD" transform="translate(256.546875,21.73046875)"/>
    <path d="M0 0 C1.73320958 -0.01655158 3.46635113 -0.04383144 5.19921875 -0.08203125 C7.70681922 -0.13697534 10.21282486 -0.1586984 12.72094727 -0.17333984 C13.48989822 -0.19600922 14.25884918 -0.21867859 15.05110168 -0.24203491 C18.837742 -0.22726404 21.61971756 0.13667156 24.78344727 2.31640625 C28.17847852 6.41697568 28.15178941 9.23677669 28.05688477 14.41259766 C28.06193779 15.71596069 28.06193779 15.71596069 28.0670929 17.0456543 C28.06679464 18.87799006 28.05160073 20.7103764 28.02246094 22.54248047 C27.98278241 25.34188599 28.00175786 28.13655165 28.02758789 30.93603516 C28.02002826 32.71990764 28.00907426 34.50376964 27.99438477 36.28759766 C28.00486092 37.53778687 28.00486092 37.53778687 28.01554871 38.81323242 C27.91715924 42.87717935 27.58527379 44.90901289 25.30419922 48.37719727 C21.24064853 51.04150178 18.21434381 51.05681195 13.45141602 50.97900391 C12.18134705 50.98262184 12.18134705 50.98262184 10.88562012 50.98631287 C9.1003754 50.98533596 7.31509981 50.97197962 5.5300293 50.94702148 C2.80355522 50.91270325 0.08032289 50.92637101 -2.64624023 50.94580078 C-4.38453523 50.93890199 -6.12282188 50.9292293 -7.86108398 50.91650391 C-9.07846252 50.92394371 -9.07846252 50.92394371 -10.32043457 50.93153381 C-14.25479546 50.85001294 -16.27209422 50.6175215 -19.69506836 48.50219727 C-23.323477 44.61682042 -22.89380569 40.42052233 -22.94311523 35.39306641 C-22.95118698 34.61248367 -22.95925873 33.83190094 -22.96757507 33.02766418 C-22.98139718 31.37596852 -22.99212771 29.72424451 -23 28.07250977 C-23.01151985 26.38785401 -23.03197193 24.70323476 -23.06152344 23.01879883 C-23.10429529 20.58080313 -23.1203817 18.14389119 -23.13061523 15.70556641 C-23.14812332 14.95848923 -23.16563141 14.21141205 -23.18367004 13.44169617 C-23.16238328 8.27121074 -22.05039122 5.28304569 -18.70483398 1.35009766 C-12.84499215 -0.60318296 -6.1486287 0.04302587 0 0 Z " fill="#005371" transform="translate(30.704833984375,9.64990234375)"/>
    <path d="M0 0 C0.8037355 -0.0066568 1.60747101 -0.0133136 2.43556213 -0.02017212 C4.13255531 -0.03028019 5.82958808 -0.03498971 7.52661133 -0.03466797 C10.11671656 -0.03904192 12.70511787 -0.07538048 15.29492188 -0.11328125 C16.94660878 -0.11914977 18.59830374 -0.12311893 20.25 -0.125 C21.40646278 -0.14655655 21.40646278 -0.14655655 22.58628845 -0.16854858 C26.33390219 -0.13685004 28.4723548 0.19529006 31.65649414 2.23974609 C36.66421305 7.39826734 34.9966264 16.0588329 35.04150391 22.87475586 C35.0580584 24.7186343 35.08534194 26.56244869 35.12353516 28.40600586 C35.1783629 31.06658155 35.20018604 33.72565387 35.21484375 36.38671875 C35.23751312 37.20771561 35.2601825 38.02871246 35.28353882 38.87458801 C35.26859542 42.93272441 34.98714973 44.88484665 32.71142578 48.35595703 C28.64039806 51.02499784 25.61898871 51.04278909 20.84765625 50.96484375 C19.57758728 50.96846169 19.57758728 50.96846169 18.28186035 50.97215271 C16.49661564 50.97117581 14.71134005 50.95781947 12.92626953 50.93286133 C10.19979545 50.8985431 7.47656313 50.91221085 4.75 50.93164062 C3.01170501 50.92474183 1.27341835 50.91506915 -0.46484375 50.90234375 C-1.68222229 50.90978355 -1.68222229 50.90978355 -2.92419434 50.91737366 C-7.9606515 50.81301709 -10.65997951 50.12948576 -14.30859375 46.3359375 C-15.89865906 43.15580687 -15.49276452 39.71623093 -15.51171875 36.22265625 C-15.51741882 35.41609085 -15.5231189 34.60952545 -15.5289917 33.77851868 C-15.5384457 32.06956292 -15.54497727 30.3605889 -15.54882812 28.65161133 C-15.55851695 26.04410709 -15.58952875 23.43739672 -15.62109375 20.83007812 C-15.6276256 19.16927551 -15.63287536 17.50846726 -15.63671875 15.84765625 C-15.65523895 14.6817823 -15.65523895 14.6817823 -15.6741333 13.49235535 C-15.65548398 8.93156261 -15.24920429 5.8946408 -12.30859375 2.3359375 C-8.72150972 -0.44112595 -4.34340626 0.01250569 0 0 Z " fill="#00AAEA" transform="translate(76.30859375,9.6640625)"/>
    <path d="M0 0 C0.78153946 -0.00428513 1.56307892 -0.00857025 2.36830139 -0.01298523 C4.0182295 -0.0187179 5.66818288 -0.01923662 7.31811523 -0.01489258 C9.83556456 -0.01173392 12.35183659 -0.03519911 14.86914062 -0.06054688 C16.47525894 -0.0628202 18.0813804 -0.06352321 19.6875 -0.0625 C20.43660141 -0.07170975 21.18570282 -0.08091949 21.95750427 -0.09040833 C26.45692293 -0.05079338 29.35179735 0.49466938 32.91015625 3.30078125 C35.49113459 7.17224876 35.25191928 10.45388044 35.28125 14.94921875 C35.29479271 16.22353256 35.29479271 16.22353256 35.30860901 17.52359009 C35.32311367 19.32070389 35.33199879 21.11787053 35.33569336 22.91503906 C35.34758402 25.65911262 35.39675937 28.40093275 35.44726562 31.14453125 C35.45673082 32.89191612 35.46396539 34.63931479 35.46875 36.38671875 C35.48828232 37.20457855 35.50781464 38.02243835 35.52793884 38.86508179 C35.49603973 42.9103762 35.19938686 44.86043397 32.92797852 48.31860352 C28.85858465 50.99147859 25.83817787 51.00764002 21.06640625 50.9296875 C19.79633728 50.93330544 19.79633728 50.93330544 18.50061035 50.93699646 C16.71536564 50.93601956 14.93009005 50.92266322 13.14501953 50.89770508 C10.41854545 50.86338685 7.69531313 50.8770546 4.96875 50.89648438 C3.23045501 50.88958558 1.49216835 50.8799129 -0.24609375 50.8671875 C-1.46347229 50.8746273 -1.46347229 50.8746273 -2.70544434 50.88221741 C-7.7419015 50.77786084 -10.44122951 50.09432951 -14.08984375 46.30078125 C-15.67990906 43.12065062 -15.27401452 39.68107468 -15.29296875 36.1875 C-15.29866882 35.3809346 -15.3043689 34.5743692 -15.3102417 33.74336243 C-15.3196957 32.03440667 -15.32622727 30.32543265 -15.33007812 28.61645508 C-15.33976695 26.00895084 -15.37077875 23.40224047 -15.40234375 20.79492188 C-15.4088756 19.13411926 -15.41412536 17.47331101 -15.41796875 15.8125 C-15.43648895 14.64662605 -15.43648895 14.64662605 -15.4553833 13.4571991 C-15.43673398 8.89640636 -15.03045429 5.85948455 -12.08984375 2.30078125 C-8.53680388 -0.43220732 -4.29359679 -0.0052098 0 0 Z " fill="#006C95" transform="translate(23.08984375,62.69921875)"/>
    <path d="M0 0 C5.23875 -0.0825 10.4775 -0.165 15.875 -0.25 C17.50679199 -0.28641602 19.13858398 -0.32283203 20.81982422 -0.36035156 C28.69546387 -0.42018365 36.15156355 -0.43042555 43 4 C46.70332964 7.74450859 49.72197094 11.57843327 50 17 C50.0825 18.0725 50.165 19.145 50.25 20.25 C49.83669621 26.4495568 48.45302371 31.26345946 44.4375 36.0625 C42 38 42 38 40 38 C40.33322266 38.50450684 40.66644531 39.00901367 41.00976562 39.52880859 C42.51124121 41.80779654 44.00568792 44.0913093 45.5 46.375 C46.02464844 47.1690625 46.54929687 47.963125 47.08984375 48.78125 C47.58613281 49.54179688 48.08242188 50.30234375 48.59375 51.0859375 C49.05458984 51.7876709 49.51542969 52.4894043 49.99023438 53.21240234 C51 55 51 55 51 57 C45.06 57 39.12 57 33 57 C31.845 54.89625 30.69 52.7925 29.5 50.625 C29.13455078 49.9645166 28.76910156 49.3040332 28.39257812 48.62353516 C26 44.22222222 26 44.22222222 26 42 C22.37 42 18.74 42 15 42 C15 46.95 15 51.9 15 57 C10.05 57 5.1 57 0 57 C0 38.19 0 19.38 0 0 Z M15 13 C15 18.28 15 23.56 15 29 C17.2275 29.04125 19.455 29.0825 21.75 29.125 C23.62945312 29.15980469 23.62945312 29.15980469 25.546875 29.1953125 C28.75020002 29.01412896 30.38402735 28.76280171 33 27 C35.0815902 24.32366974 34.99587591 22.88246332 34.875 19.4375 C34.30549939 16.06047048 34.30549939 16.06047048 32.4296875 14.296875 C29.06134278 12.49898039 25.95873659 12.6768438 22.25 12.8125 C18.66125 12.9053125 18.66125 12.9053125 15 13 Z " fill="#008CC0" transform="translate(273,17)"/>
    <path d="M0 0 C14.19 0 28.38 0 43 0 C43 4.29 43 8.58 43 13 C33.76 13 24.52 13 15 13 C15 16.63 15 20.26 15 24 C23.58 24 32.16 24 41 24 C41 28.29 41 32.58 41 37 C32.42 37 23.84 37 15 37 C15 43.6 15 50.2 15 57 C10.05 57 5.1 57 0 57 C0 38.19 0 19.38 0 0 Z " fill="#008CC1" transform="translate(138,17)"/>
    <path d="M0 0 C5.28 0 10.56 0 16 0 C16 18.81 16 37.62 16 57 C10.72 57 5.44 57 0 57 C0 38.19 0 19.38 0 0 Z " fill="#0087B9" transform="translate(185,17)"/>
    <path d="M0 0 C3.35211493 2.18616191 4.72686604 3.18059812 6 7 C6.3686858 11.97725826 6.16456308 15.04429615 3 19 C0.03155522 21.30879038 -3.25244719 21.48905775 -6.96484375 21.37109375 C-10.76689017 20.67782233 -12.54835644 18.87021685 -15 16 C-16.501417 11.89219058 -16.26385495 8.8226066 -14.9375 4.6875 C-10.90582608 -0.90482189 -6.49247858 -1.77067598 0 0 Z " fill="#F0F0F0" transform="translate(91,78)"/>
    <path d="M0 0 C2.475 0.495 2.475 0.495 5 1 C5.66 1.99 6.32 2.98 7 4 C7.33 2.68 7.66 1.36 8 0 C9.32 0 10.64 0 12 0 C12 4.29 12 8.58 12 13 C10.35 12.67 8.7 12.34 7 12 C6.34 11.01 5.68 10.02 5 9 C4.67 10.32 4.34 11.64 4 13 C2.68 13 1.36 13 0 13 C0 8.71 0 4.42 0 0 Z " fill="#D9D9D9" transform="translate(287,91)"/>
    <path d="M0 0 C2 1.5625 2 1.5625 3 4 C2.93375803 7.77579201 2.78061285 10.07482922 0.3125 13 C-2.89970645 14.38906225 -4.6936636 14.05521374 -8 13 C-9.9375 11.375 -9.9375 11.375 -11 9 C-10.875 5.375 -10.875 5.375 -10 2 C-6.29584707 -0.46943529 -4.37855495 -0.46913089 0 0 Z M-4 3 C-5.64555699 4.22809091 -5.64555699 4.22809091 -7 6 C-6.77242269 8.16299211 -6.77242269 8.16299211 -6 10 C-4.68 9.67 -3.36 9.34 -2 9 C-1.67 7.68 -1.34 6.36 -1 5 C-1.99 4.34 -2.98 3.68 -4 3 Z " fill="#D9D9D9" transform="translate(170,91)"/>
    <path d="M0 0 C1.9375 1.0625 1.9375 1.0625 3 3 C3.38991688 7.36706908 3.46324069 9.30513897 1 13 C-2.57474656 13.92678615 -4.9492992 14.40411569 -8.4375 13.0625 C-10.53094774 10.29914899 -10.51250592 8.27510058 -10.3125 4.875 C-10 3 -10 3 -8.9375 1 C-5.86784865 -0.58433618 -3.38318857 -0.36248449 0 0 Z M-4 3 C-4.99 3.495 -4.99 3.495 -6 4 C-6 5.65 -6 7.3 -6 9 C-4.05396726 9.59070014 -4.05396726 9.59070014 -2 10 C-0.70366379 8.93354885 -0.70366379 8.93354885 -0.9375 6.4375 C-0.958125 5.633125 -0.97875 4.82875 -1 4 C-1.99 3.67 -2.98 3.34 -4 3 Z " fill="#DADADA" transform="translate(273,91)"/>
    <path d="M0 0 C1.32 0 2.64 0 4 0 C4.33 2.97 4.66 5.94 5 9 C5.99 9.33 6.98 9.66 8 10 C8.33 6.7 8.66 3.4 9 0 C10.32 0 11.64 0 13 0 C13.16682272 4.92127034 13.24828052 8.50343896 11 13 C4.375 14.25 4.375 14.25 1 12 C0.03929566 9.11788698 -0.10581883 7.30149956 -0.0625 4.3125 C-0.05347656 3.50425781 -0.04445312 2.69601563 -0.03515625 1.86328125 C-0.02355469 1.24839844 -0.01195312 0.63351563 0 0 Z " fill="#DBDBDB" transform="translate(203,91)"/>
    <path d="M0 0 C1.134375 0.020625 2.26875 0.04125 3.4375 0.0625 C4.0975 1.3825 4.7575 2.7025 5.4375 4.0625 C4.4475 4.5575 4.4475 4.5575 3.4375 5.0625 C4.4275 6.5475 4.4275 6.5475 5.4375 8.0625 C5.25 10.125 5.25 10.125 4.4375 12.0625 C1.4375 14.0625 1.4375 14.0625 -1.75 13.6875 C-3.1421875 13.378125 -3.1421875 13.378125 -4.5625 13.0625 C-4.8925 11.7425 -5.2225 10.4225 -5.5625 9.0625 C-4.9025 9.0625 -4.2425 9.0625 -3.5625 9.0625 C-3.8925 8.4025 -4.2225 7.7425 -4.5625 7.0625 C-4.6875 4 -4.6875 4 -4.5625 1.0625 C-3.5625 0.0625 -3.5625 0.0625 0 0 Z M-0.5625 3.0625 C-0.5625 3.7225 -0.5625 4.3825 -0.5625 5.0625 C0.0975 4.7325 0.7575 4.4025 1.4375 4.0625 C0.7775 3.7325 0.1175 3.4025 -0.5625 3.0625 Z M-2.5625 8.0625 C-2.2325 8.7225 -1.9025 9.3825 -1.5625 10.0625 C-0.5725 9.7325 0.4175 9.4025 1.4375 9.0625 C0.1175 8.7325 -1.2025 8.4025 -2.5625 8.0625 Z " fill="#D3D3D3" transform="translate(315.5625,90.9375)"/>
    <path d="M0 0 C0.94875 0.04125 1.8975 0.0825 2.875 0.125 C3.535 1.445 4.195 2.765 4.875 4.125 C3.885 4.62 3.885 4.62 2.875 5.125 C3.535 5.785 4.195 6.445 4.875 7.125 C4.5 10.25 4.5 10.25 3.875 13.125 C-1.54038462 14.35576923 -1.54038462 14.35576923 -4.5 13.1875 C-5.03625 12.836875 -5.5725 12.48625 -6.125 12.125 C-6.125 11.135 -6.125 10.145 -6.125 9.125 C-5.465 9.125 -4.805 9.125 -4.125 9.125 C-4.33125 8.01125 -4.5375 6.8975 -4.75 5.75 C-4.87375 4.55375 -4.9975 3.3575 -5.125 2.125 C-3.125 0.125 -3.125 0.125 0 0 Z M-1.125 3.125 C-1.125 3.785 -1.125 4.445 -1.125 5.125 C-0.465 5.125 0.195 5.125 0.875 5.125 C0.875 4.465 0.875 3.805 0.875 3.125 C0.215 3.125 -0.445 3.125 -1.125 3.125 Z M-2.125 8.125 C-2.125 8.785 -2.125 9.445 -2.125 10.125 C-1.135 9.795 -0.145 9.465 0.875 9.125 C-0.115 8.795 -1.105 8.465 -2.125 8.125 Z " fill="#D5D5D5" transform="translate(144.125,90.875)"/>
    <path d="M0 0 C3.96 0 7.92 0 12 0 C11.67 0.99 11.34 1.98 11 3 C10.01 3 9.02 3 8 3 C8 6.3 8 9.6 8 13 C6.68 13 5.36 13 4 13 C4 9.7 4 6.4 4 3 C2.68 3 1.36 3 0 3 C0 2.01 0 1.02 0 0 Z " fill="#EAEAEA" transform="translate(226,91)"/>
    <path d="M0 0 C1.32 0 2.64 0 4 0 C4 3.3 4 6.6 4 10 C5.65 10 7.3 10 9 10 C9 10.99 9 11.98 9 13 C6.03 13 3.06 13 0 13 C0 8.71 0 4.42 0 0 Z " fill="#E9E9E9" transform="translate(184,91)"/>
    <path d="M0 0 C1.32 0 2.64 0 4 0 C4 4.29 4 8.58 4 13 C2.68 13 1.36 13 0 13 C0 8.71 0 4.42 0 0 Z " fill="#DFDFDF" transform="translate(248,91)"/>
</svg>
